<svg width="40" height="40" viewBox="0 0 40 40" fill="none" xmlns="http://www.w3.org/2000/svg">
<path fill-rule="evenodd" clip-rule="evenodd" d="M23.0434 9.40723C20.9088 8.80968 18.6435 8.87096 16.5444 9.58302C14.4452 10.2951 12.6102 11.6247 11.2798 13.3977C9.94932 15.1706 9.18554 17.3041 9.08854 19.5186C8.99155 21.7331 9.56584 23.9253 10.7362 25.8078C11.9065 27.6902 13.6182 29.1752 15.6471 30.0681C17.6759 30.961 19.9272 31.2201 22.1058 30.8115C24.2844 30.4028 26.2888 29.3456 27.8562 27.7782C28.8325 26.8019 30.4154 26.8019 31.3917 27.7782C32.368 28.7545 32.368 30.3374 31.3917 31.3137C29.1119 33.5935 26.1964 35.1314 23.0275 35.7258C19.8586 36.3201 16.5841 35.9433 13.633 34.6445C10.682 33.3458 8.19217 31.1858 6.48988 28.4476L8.58237 27.1468L6.48988 28.4476C4.78759 25.7095 3.95224 22.5209 4.09333 19.2998C4.23442 16.0787 5.34536 12.9754 7.28055 10.3966C9.21574 7.81778 11.8849 5.88376 14.9382 4.84803C17.9915 3.8123 21.2864 3.72318 24.3912 4.59234C27.4961 5.46151 30.2658 7.24841 32.3376 9.71885C33.2248 10.7768 33.0864 12.3536 32.0285 13.2408C30.9705 14.128 29.3937 13.9896 28.5065 12.9317C27.0821 11.2333 25.1779 10.0048 23.0434 9.40723ZM35.5 20.5C35.5 21.8807 34.3807 23 33 23C31.6193 23 30.5 21.8807 30.5 20.5C30.5 19.1193 31.6193 18 33 18C34.3807 18 35.5 19.1193 35.5 20.5ZM19.5 18.6707C19.165 18.7891 18.8573 18.9653 18.5889 19.1874C17.9238 19.7377 17.5 20.5693 17.5 21.5C17.5 21.9032 17.5796 22.2879 17.7239 22.6392C18.1436 23.6609 19.1109 24.3998 20.2605 24.4906C20.3395 24.4968 20.4194 24.5 20.5 24.5C21.7536 24.5 22.8276 23.7311 23.2762 22.6392C23.4062 22.3227 23.4836 21.9791 23.4977 21.6192L23.7361 21.5L23.7847 21.4757L24.4822 21.1269L24.4828 21.1266L24.5 21.118L26.3565 20.1898L27.9472 19.3944C28.4412 19.1474 28.6414 18.5468 28.3944 18.0528C28.1475 17.5588 27.5468 17.3586 27.0528 17.6056L26.5 17.882L25.5973 18.3333L24.9225 18.6707L24.5 18.882L23.7965 19.2337L23.5878 19.3381L22.8903 19.6868C22.6976 19.4332 22.4655 19.2112 22.2031 19.0299C21.9875 18.881 21.7514 18.7596 21.5 18.6707V17.626V17.6238V17.0279V16.9063V16.374V15.583V14.7918V12.5C21.5 11.9477 21.0523 11.5 20.5 11.5C19.9477 11.5 19.5 11.9477 19.5 12.5V15.583V16.374V17.626V18.0279V18.6707ZM20.5 20.5C20.3831 20.5 20.271 20.5201 20.1667 20.5569C19.7893 20.6903 19.5159 21.0437 19.5007 21.463C19.5002 21.4753 19.5 21.4876 19.5 21.5C19.5 21.7282 19.5764 21.9385 19.7051 22.1068C19.8219 22.2596 19.9818 22.3778 20.1667 22.4431C20.2709 22.4799 20.3831 22.5 20.5 22.5C20.6169 22.5 20.7291 22.4799 20.8334 22.4431C21.2095 22.3102 21.4823 21.9586 21.4992 21.5411C21.4997 21.5275 21.5 21.5138 21.5 21.5C21.5 21.2734 21.4247 21.0645 21.2977 20.8968C21.1806 20.7422 21.0196 20.6227 20.8333 20.5569C20.7291 20.5201 20.6169 20.5 20.5 20.5Z" fill="url(#paint0_linear_36_2)"/>
<defs>
<linearGradient id="paint0_linear_36_2" x1="19.789" y1="4" x2="19.789" y2="36" gradientUnits="userSpaceOnUse">
<stop stop-color="#8A50BE"/>
<stop offset="1" stop-color="#27ADE2"/>
</linearGradient>
</defs>
</svg>
